<?xml version="1.0" encoding="UTF-8"?>
<svg width="15px" height="15px" viewBox="0 0 15 15" version="1.1" xmlns="http://www.w3.org/2000/svg" xmlns:xlink="http://www.w3.org/1999/xlink">
    <!-- Generator: Sketch 52.5 (67469) - http://www.bohemiancoding.com/sketch -->
    <title>Spanish / Default </title>
    <desc>Created with Sketch.</desc>
    <g id="Explore-Full-Flow" stroke="none" stroke-width="1" fill="none" fill-rule="evenodd">
        <g id="Spanish-/-Default-" fill="#767676">
            <g id="Group-4">
                <path d="M7.50000008,0 C3.35791599,0 0,3.35791579 0,7.49999984 C0,11.6420839 3.35791599,15 7.50000008,15 C11.6420842,15 15,11.6420839 15,7.49999984 C15,3.35791579 11.6420842,0 7.50000008,0 Z M7.5,13.8 C4.01736,13.8 1.2,10.98264 1.2,7.5 C1.2,4.01736 4.01736,1.2 7.5,1.2 C10.98264,1.2 13.8,4.01736 13.8,7.5 C13.8,10.98264 10.98264,13.8 7.5,13.8 Z" id="Fill-1"></path>
            </g>
            <path d="M3.916,9.8 L3.916,4.837 L7.024,4.837 L7.024,5.747 L4.882,5.747 L4.882,6.881 L6.821,6.881 L6.821,7.742 L4.882,7.742 L4.882,8.89 L7.024,8.89 L7.024,9.8 L3.916,9.8 Z M10.461,6.286 C10.4469999,6.21599965 10.4225002,6.14016708 10.3875,6.0585 C10.3524998,5.97683293 10.3000004,5.90100035 10.23,5.831 C10.1599996,5.76099965 10.0701672,5.7026669 9.9605,5.656 C9.85083278,5.6093331 9.71666746,5.586 9.558,5.586 C9.44133275,5.586 9.33516714,5.60349983 9.2395,5.6385 C9.14383285,5.67350018 9.062167,5.72016638 8.9945,5.7785 C8.926833,5.83683363 8.87433352,5.90333296 8.837,5.978 C8.79966648,6.05266704 8.781,6.13199958 8.781,6.216 C8.781,6.35133401 8.82533289,6.46916617 8.914,6.5695 C9.00266711,6.66983384 9.13799909,6.73866648 9.32,6.776 L10.013,6.909 C10.2370011,6.95100021 10.4353325,7.0186662 10.608,7.112 C10.7806675,7.2053338 10.9253328,7.31616603 11.042,7.4445 C11.1586673,7.57283398 11.247333,7.71633254 11.308,7.875 C11.368667,8.03366746 11.399,8.19933247 11.399,8.372 C11.399,8.56333429 11.3593337,8.75116575 11.28,8.9355 C11.2006663,9.11983426 11.0851674,9.28316596 10.9335,9.4255 C10.7818326,9.56783405 10.5951678,9.68333289 10.3735,9.772 C10.1518322,9.86066711 9.89633478,9.905 9.607,9.905 C9.27566501,9.905 8.99100119,9.85716715 8.753,9.7615 C8.51499881,9.66583286 8.31550081,9.54333408 8.1545,9.394 C7.9934992,9.24466592 7.87100042,9.07783426 7.787,8.8935 C7.70299958,8.70916575 7.65166676,8.52833422 7.633,8.351 L8.529,8.113 C8.53833338,8.23433394 8.56749976,8.35099944 8.6165,8.463 C8.66550025,8.57500056 8.73433289,8.67416624 8.823,8.7605 C8.91166711,8.84683377 9.02133268,8.91566641 9.152,8.967 C9.28266732,9.01833359 9.43666578,9.044 9.614,9.044 C9.87533464,9.044 10.0748326,8.98683391 10.2125,8.8725 C10.3501674,8.7581661 10.419,8.61233422 10.419,8.435 C10.419,8.29033261 10.3676672,8.16550053 10.265,8.0605 C10.1623328,7.95549948 10.013001,7.88433352 9.817,7.847 L9.124,7.707 C8.72733135,7.62766627 8.41116784,7.46550123 8.1755,7.2205 C7.93983215,6.97549878 7.822,6.66400189 7.822,6.286 C7.822,6.06666557 7.86749954,5.86250095 7.9585,5.6735 C8.04950046,5.48449906 8.17433254,5.3200007 8.333,5.18 C8.49166746,5.0399993 8.67599895,4.93033373 8.886,4.851 C9.09600105,4.77166627 9.3176655,4.732 9.551,4.732 C9.84966816,4.732 10.1051656,4.77283293 10.3175,4.8545 C10.5298344,4.93616708 10.7059993,5.03999937 10.846,5.166 C10.9860007,5.29200063 11.0944996,5.43083258 11.1715,5.5825 C11.2485004,5.73416743 11.3009999,5.8799993 11.329,6.02 L10.461,6.286 Z" id="ES"></path>
        </g>
    </g>
</svg>